<?xml version="1.0" ?><!DOCTYPE svg  PUBLIC '-//W3C//DTD SVG 1.1//EN'  'http://www.w3.org/Graphics/SVG/1.1/DTD/svg11.dtd'><svg enable-background="new 0 0 32 32" height="32px" id="_x3C_Layer_x3E_" version="1.1" viewBox="0 0 32 32" width="32px" xml:space="preserve" xmlns="http://www.w3.org/2000/svg" xmlns:xlink="http://www.w3.org/1999/xlink"><g id="Gesture_x2C__hand_x2C__single_x2C__tap_x2C__click_1_"><g id="XMLID_3996_"><g id="XMLID_3997_"><path d="     M10.891,26.034l-1.4-1.244c-0.7-0.63-1.24-1.41-1.58-2.29L5.9,16.95c-0.17-0.47,0.05-0.99,0.5-1.2     c0.239-0.11,0.479-0.16,0.729-0.16c0.63,0,1.24,0.351,1.55,0.95l1.84,3.7c0.62-0.46,0.98-1.19,0.98-1.95V6.5     C11.5,5.67,12.17,5,13,5s1.5,0.67,1.5,1.5v8c0-0.83,0.67-1.5,1.5-1.5s1.5,0.67,1.5,1.5V15c0-0.83,0.67-1.5,1.5-1.5     s1.5,0.67,1.5,1.5v1c0-0.83,0.67-1.5,1.5-1.5s1.5,0.67,1.5,1.5v8.09c0,0.675-0.202,1.333-0.573,1.891" fill="none" id="XMLID_4231_" stroke="#455A64" stroke-linecap="round" stroke-linejoin="round" stroke-miterlimit="10"/><g id="XMLID_3999_"><g id="XMLID_4229_"><line fill="none" id="XMLID_4230_" stroke="#455A64" stroke-linecap="round" stroke-linejoin="round" stroke-miterlimit="10" x1="10.172" x2="9.465" y1="3.672" y2="2.965"/></g><g id="XMLID_4227_"><line fill="none" id="XMLID_4228_" stroke="#455A64" stroke-linecap="round" stroke-linejoin="round" stroke-miterlimit="10" x1="13" x2="13" y1="2.5" y2="1.5"/></g><g id="XMLID_4003_"><line fill="none" id="XMLID_4226_" stroke="#455A64" stroke-linecap="round" stroke-linejoin="round" stroke-miterlimit="10" x1="15.828" x2="16.535" y1="3.672" y2="2.965"/></g><g id="XMLID_4000_"><line fill="none" id="XMLID_4002_" stroke="#455A64" stroke-linecap="round" stroke-linejoin="round" stroke-miterlimit="10" x1="17" x2="18" y1="6.5" y2="6.5"/><line fill="none" id="XMLID_4001_" stroke="#455A64" stroke-linecap="round" stroke-linejoin="round" stroke-miterlimit="10" x1="8" x2="9" y1="6.5" y2="6.5"/></g></g><polyline fill="none" id="XMLID_3998_" points="     10.5,30.5 10.5,27.5 23.5,27.5 23.5,30.5    " stroke="#455A64" stroke-linecap="round" stroke-linejoin="round" stroke-miterlimit="10"/></g></g><g id="XMLID_3937_"><g id="XMLID_3938_"><path d="     M10.891,26.034l-1.4-1.244c-0.7-0.63-1.24-1.41-1.58-2.29L5.9,16.95c-0.17-0.47,0.05-0.99,0.5-1.2     c0.239-0.11,0.479-0.16,0.729-0.16c0.63,0,1.24,0.351,1.55,0.95l1.84,3.7c0.62-0.46,0.98-1.19,0.98-1.95V6.5     C11.5,5.67,12.17,5,13,5s1.5,0.67,1.5,1.5v8c0-0.83,0.67-1.5,1.5-1.5s1.5,0.67,1.5,1.5V15c0-0.83,0.67-1.5,1.5-1.5     s1.5,0.67,1.5,1.5v1c0-0.83,0.67-1.5,1.5-1.5s1.5,0.67,1.5,1.5v8.09c0,0.675-0.202,1.333-0.573,1.891" fill="none" id="XMLID_3995_" stroke="#263238" stroke-linecap="round" stroke-linejoin="round" stroke-miterlimit="10"/><g id="XMLID_3940_"><g id="XMLID_3993_"><line fill="none" id="XMLID_3994_" stroke="#263238" stroke-linecap="round" stroke-linejoin="round" stroke-miterlimit="10" x1="10.172" x2="9.465" y1="3.672" y2="2.965"/></g><g id="XMLID_3991_"><line fill="none" id="XMLID_3992_" stroke="#263238" stroke-linecap="round" stroke-linejoin="round" stroke-miterlimit="10" x1="13" x2="13" y1="2.5" y2="1.5"/></g><g id="XMLID_3944_"><line fill="none" id="XMLID_3945_" stroke="#263238" stroke-linecap="round" stroke-linejoin="round" stroke-miterlimit="10" x1="15.828" x2="16.535" y1="3.672" y2="2.965"/></g><g id="XMLID_3941_"><line fill="none" id="XMLID_3943_" stroke="#263238" stroke-linecap="round" stroke-linejoin="round" stroke-miterlimit="10" x1="17" x2="18" y1="6.5" y2="6.5"/><line fill="none" id="XMLID_3942_" stroke="#263238" stroke-linecap="round" stroke-linejoin="round" stroke-miterlimit="10" x1="8" x2="9" y1="6.5" y2="6.5"/></g></g><polyline fill="none" id="XMLID_3939_" points="     10.5,30.5 10.5,27.5 23.5,27.5 23.5,30.5    " stroke="#263238" stroke-linecap="round" stroke-linejoin="round" stroke-miterlimit="10"/></g></g></g></svg>