<?xml version="1.0" ?><!DOCTYPE svg  PUBLIC '-//W3C//DTD SVG 1.1//EN'  'http://www.w3.org/Graphics/SVG/1.1/DTD/svg11.dtd'><svg enable-background="new -76.807 -46.565 1024 1024" height="1024px" version="1.1" viewBox="-76.807 -46.565 1024 1024" width="1024px" xml:space="preserve" xmlns="http://www.w3.org/2000/svg" xmlns:xlink="http://www.w3.org/1999/xlink"><defs/><g><g><path d="M647.378,75.758c0,20.094,0,40.188,0,60.282c0,50.004,0,100.008,0,150.012c0,64.497,0,128.993,0,193.49    c0,63.571,0,127.143,0,190.714c0,47.229,0,94.458,0,141.687c0,12.668,0,25.337,0,38.005c0,2.754,0,5.508,0,8.263    c0,0.377,0,0.753,0,1.13c0,2.32-0.166,4.623-0.417,6.929c0.321-2.95-0.366,1.428-0.414,1.658c-0.273,1.323-0.64,2.626-1.006,3.927    c-1.466,5.213-2.783,7.767-6.583,13.472c-0.092,0.139-2.714,3.592-0.991,1.43c-0.83,1.041-1.725,2.029-2.617,3.016    c-1.791,1.978-3.764,3.782-5.783,5.521c-3.276,2.818,2.107-1.458-1.394,1.085c-1.085,0.788-2.217,1.509-3.347,2.229    c-2.651,1.687-5.469,3.096-8.332,4.381c2.553-1.146-1.556,0.493-1.703,0.545c-1.283,0.451-2.594,0.82-3.903,1.188    c-1.315,0.37-2.654,0.655-3.991,0.94c-0.201,0.043-4.638,0.711-1.718,0.352c-2.39,0.295-4.809,0.389-7.215,0.389    c-4.169,0-8.337,0-12.506,0c-22.596,0-45.192,0-67.788,0c-62.463,0-124.926,0-187.389,0c-17.143,0-34.285,0-51.427,0    c-11.479,0-18.952-1.676-28.667-7.795c-12.8-8.062-21.08-23.694-21.08-39.372c0-21.586,0-43.173,0-64.76    c0-50.88,0-101.76,0-152.639c0-64.756,0-129.512,0-194.267c0-63.214,0-126.428,0-189.642c0-46.254,0-92.509,0-138.763    c0-11.95,0-23.899,0-35.849c0-2.337,0-4.674,0-7.012c0-12.53,4.621-24.097,12.874-32.892    c9.437-10.056,21.603-14.712,35.217-14.712c5.1,0,10.2,0,15.3,0c23.778,0,47.556,0,71.333,0c62.1,0,124.199,0,186.298,0    c15.136,0,30.271,0,45.406,0c0.884,0,1.768,0,2.651,0c7.628,0,15.67,2.001,21.962,5.147c2.003,1.001,3.92,2.167,5.809,3.369    c1.13,0.719,2.214,1.507,3.298,2.294c-2.217-1.61,1.204,1.069,1.322,1.17c2.021,1.74,3.877,3.663,5.665,5.637    c0.106,0.117,2.852,3.497,1.17,1.293c0.808,1.058,1.546,2.166,2.282,3.272c3.232,4.854,4.155,7.172,5.452,11.079    c0.853,2.571,1.435,5.222,1.919,7.883c-0.531-2.914,0.14,1.489,0.16,1.733C647.345,72.967,647.361,74.364,647.378,75.758    c0.093,7.63,6.299,14,14,14c7.562,0,14.093-6.368,14-14c-0.519-42.792-37.318-75.059-79.089-75.059c-16.379,0-32.758,0-49.137,0    c-62.3,0-124.599,0-186.898,0c-23.196,0-46.392,0-69.588,0c-4.639,0-9.278,0-13.917,0c-19.756,0-38.355,7.588-52.726,21.072    c-14.694,13.787-22.917,34.126-22.917,54.156c0,1.914,0,3.828,0,5.742c0,11.219,0,22.438,0,33.656c0,45.255,0,90.511,0,135.767    c0,62.831,0,125.663,0,188.494c0,64.989,0,129.979,0,194.97c0,51.73,0,103.461,0,155.192c0,23.054,0,46.108,0,69.162    c0,41.124,33.964,75.49,75.206,75.49c13.143,0,26.286,0,39.429,0c61.281,0,122.563,0,183.844,0c25.414,0,50.828,0,76.242,0    c6.43,0,12.859,0,19.288,0c12.899,0,24.942-2.491,36.743-7.79c23.483-10.544,39.566-33.826,42.921-58.982    c0.513-3.846,0.599-7.641,0.599-11.495c0-9.72,0-19.44,0-29.16c0-43.184,0-86.367,0-129.55c0-61.993,0-123.985,0-185.979    c0-65.384,0-130.769,0-196.153c0-53.359,0-106.718,0-160.077c0-25.916,0-51.831,0-77.747c0-0.57,0-1.139,0-1.709    c0-7.632-6.368-14-14-14S647.378,68.126,647.378,75.758z" fill="#010202"/></g></g><g><g><path d="M661.378,762.094c-31.853,0-63.704,0-95.557,0c-63.902,0-127.805,0-191.707,0    c-48.471,0-96.941,0-145.412,0c-4.532,0-9.064,0-13.596,0c4.667,4.667,9.333,9.333,14,14c0-23.971,0-47.941,0-71.913    c0-56.391,0-112.782,0-169.173c0-65.53,0-131.059,0-196.589c0-51.385,0-102.771,0-154.157c0-15.285,0-30.571,0-45.856    c-4.667,4.667-9.333,9.333-14,14c31.852,0,63.705,0,95.557,0c63.902,0,127.805,0,191.707,0c48.471,0,96.941,0,145.412,0    c4.531,0,9.063,0,13.596,0c-4.667-4.667-9.333-9.333-14-14c0,23.971,0,47.942,0,71.913c0,56.391,0,112.782,0,169.174    c0,65.529,0,131.059,0,196.588c0,51.386,0,102.771,0,154.157c0,15.285,0,30.571,0,45.856c0,7.632,6.368,14,14,14s14-6.368,14-14    c0-23.971,0-47.941,0-71.913c0-56.391,0-112.782,0-169.173c0-65.53,0-131.059,0-196.589c0-51.385,0-102.771,0-154.157    c0-15.285,0-30.571,0-45.856c0-7.632-6.368-14-14-14c-31.853,0-63.704,0-95.557,0c-63.902,0-127.805,0-191.707,0    c-48.471,0-96.941,0-145.412,0c-4.532,0-9.064,0-13.596,0c-7.632,0-14,6.368-14,14c0,23.971,0,47.942,0,71.913    c0,56.391,0,112.782,0,169.174c0,65.529,0,131.059,0,196.588c0,51.386,0,102.771,0,154.157c0,15.285,0,30.571,0,45.856    c0,7.632,6.368,14,14,14c31.852,0,63.705,0,95.557,0c63.902,0,127.805,0,191.707,0c48.471,0,96.941,0,145.412,0    c4.531,0,9.063,0,13.596,0c7.632,0,14-6.368,14-14S669.01,762.094,661.378,762.094z" fill="#010202"/></g></g><g><g><path d="M438.242,70.613c7.632,0,14-6.368,14-14s-6.368-14-14-14s-14,6.368-14,14S430.61,70.613,438.242,70.613    L438.242,70.613z" fill="#010202"/></g></g><g><g><path d="M367.269,108.448c7.632,0,14-6.368,14-14s-6.368-14-14-14s-14,6.368-14,14    S359.637,108.448,367.269,108.448L367.269,108.448z" fill="#010202"/></g></g><g><g><path d="M411.304,108.448c17.958,0,35.917,0,53.876,0c7.632,0,14-6.368,14-14s-6.368-14-14-14    c-17.959,0-35.917,0-53.876,0c-7.632,0-14,6.368-14,14S403.672,108.448,411.304,108.448L411.304,108.448z" fill="#010202"/></g></g><g><g><path d="M452.527,848.479c-0.007,0.281-0.496,4.677-0.01,1.738c-0.29,1.755-0.861,3.448-1.467,5.114    c0.973-2.675-0.758,1.055-0.918,1.327c-0.929,1.336-0.95,1.443-0.066,0.323c-0.546,0.664-1.12,1.303-1.724,1.915    c-0.21,0.224-3.38,2.827-1.088,1.137c-1.389,1.024-2.929,1.818-4.476,2.569c2.592-1.259-1.271,0.221-1.59,0.307    c-1.652,0.314-1.728,0.372-0.224,0.172c-0.905,0.088-1.813,0.132-2.724,0.132c-0.362,0.009-4.618-0.524-1.653-0.018    c-0.568-0.098-5.418-1.682-2.885-0.593c-1.188-0.511-2.3-1.185-3.404-1.853c-1.333-0.928-1.424-0.961-0.273-0.103    c-0.655-0.555-1.283-1.139-1.886-1.751c-0.234-0.228-2.716-3.434-1.083-1.15c-0.326-0.455-2.669-4.927-1.624-2.415    c-0.511-1.228-0.85-2.518-1.186-3.8c-0.311-1.659-0.365-1.755-0.161-0.285c-0.086-0.921-0.129-1.843-0.129-2.768    c-0.102-4.361,1.543-7.611,4.184-10.417c0.21-0.224,3.381-2.827,1.088-1.137c1.389-1.024,2.929-1.818,4.475-2.569    c-2.591,1.259,1.271-0.221,1.591-0.307c1.652-0.314,1.727-0.371,0.223-0.172c0.906-0.088,1.814-0.132,2.725-0.132    c0.362-0.009,4.618,0.524,1.653,0.019c0.568,0.097,5.418,1.681,2.884,0.592c1.189,0.511,2.301,1.184,3.405,1.853    c1.333,0.927,1.424,0.961,0.272,0.103c0.655,0.555,1.284,1.139,1.886,1.751c0.235,0.228,2.717,3.434,1.084,1.15    c0.326,0.455,2.67,4.927,1.624,2.415c0.511,1.228,0.85,2.517,1.186,3.799c0.312,1.659,0.365,1.755,0.161,0.286    C452.484,846.633,452.527,847.556,452.527,848.479c0.179,7.628,6.233,14,14,14c7.496,0,14.179-6.368,14-14    c-0.55-23.462-18.705-42.163-42.285-42.733c-23.576-0.57-41.756,20.134-42.285,42.733c-0.55,23.459,19.532,42.185,42.285,42.734    c23.576,0.57,41.756-20.135,42.285-42.734c0.179-7.632-6.504-14-14-14C458.761,834.479,452.706,840.852,452.527,848.479z" fill="#010202"/></g></g></svg>